PathFileType  4	(X/Y/Z) C:\Users\antoi\Documents\MyRepositories\mobilecap\ResultsAnalysis
DataRate	CameraRate	NumFrames	NumMarkers	Units	OrigDataRate	OrigDataStartFrame	OrigNumFrames
100.0	100.0	4	51	mm	100.0	1	861
Frame#	Time	r_knee			r_shank_antsup			r_ankle			r_calc			r_5meta			r_toe			L_knee			L_shank_antsup			L_ankle			L_calc			L_5meta			L_toe			r_sh2			r_sh3			r_sh4			L_sh2			L_sh3			r_thigh1			r_thigh2			r_thigh3			r_thigh4			r_thigh5			L_thigh1			L_thigh2			L_thigh3			L_thigh4			r.ASIS			r.PSIS			L.ASIS			L.PSIS			C7			R_Shoulder			L_Shoulder			R_Sternum			L_Sternum			R_humerus			R_elbow_med			R_elbow_lat			R_forearm			R_wrist_radius			R_wrist_ulna			L_humerus			L_elbow_med			L_elbow_lat			L_forearm			L_wrist_radius			L_wrist_ulna			R_HJC			L_HJC			R_HJC_reg			L_HJC_reg			
		X1	Y1	Z1	X2	Y2	Z2	X3	Y3	Z3	X4	Y4	Z4	X5	Y5	Z5	X6	Y6	Z6	X7	Y7	Z7	X8	Y8	Z8	X9	Y9	Z9	X10	Y10	Z10	X11	Y11	Z11	X12	Y12	Z12	X13	Y13	Z13	X14	Y14	Z14	X15	Y15	Z15	X16	Y16	Z16	X17	Y17	Z17	X18	Y18	Z18	X19	Y19	Z19	X20	Y20	Z20	X21	Y21	Z21	X22	Y22	Z22	X23	Y23	Z23	X24	Y24	Z24	X25	Y25	Z25	X26	Y26	Z26	X27	Y27	Z27	X28	Y28	Z28	X29	Y29	Z29	X30	Y30	Z30	X31	Y31	Z31	X32	Y32	Z32	X33	Y33	Z33	X34	Y34	Z34	X35	Y35	Z35	X36	Y36	Z36	X37	Y37	Z37	X38	Y38	Z38	X39	Y39	Z39	X40	Y40	Z40	X41	Y41	Z41	X42	Y42	Z42	X43	Y43	Z43	X44	Y44	Z44	X45	Y45	Z45	X46	Y46	Z46	X47	Y47	Z47	X48	Y48	Z48	X49	Y49	Z49	X50	Y50	Z50	X51	Y51	Z51	

1	0.00000000	-248.34546	589.07155	-348.34278	-191.49052	458.67256	-336.07426	-290.20006	104.23887	-327.94052	-346.04036	73.10487	-393.17034	-156.80003	45.14574	-289.72630	-115.91588	72.14046	-338.66554	-279.50692	583.84989	-931.27659	-202.66407	407.51552	-930.47578	-302.39453	112.86395	-930.45892	-356.01904	74.29371	-865.49078	-166.25462	37.95862	-977.12201	-121.47746	70.77565	-923.39013	-205.65999	344.47201	-339.32034	-259.54183	462.95184	-305.54478	-274.38273	352.10500	-295.34118	-276.13377	421.57680	-976.77633	-291.02707	303.71809	-963.53318	-529.81540	650.19455	-385.01492	-422.03580	660.66123	-361.99886	-399.20014	595.79349	-348.04783	-526.50300	540.96757	-397.68028	-410.10497	544.46903	-372.00756	-550.04361	675.47214	-850.95029	-421.67364	672.22261	-891.00328	-567.74906	570.16025	-874.84989	-435.78756	567.54003	-920.38874	-630.85180	723.01861	-491.46103	-818.93430	702.26817	-572.46717	-643.95276	706.64995	-758.52773	-822.14224	703.75307	-662.72038	-743.39806	1196.11238	-635.20893	-663.58283	1161.89946	-463.86357	-683.11961	1171.38531	-807.84786	-597.91385	1116.62291	-609.81129	-596.22696	1115.47946	-658.77745	-623.09677	905.93499	-383.28816	-693.77676	766.04147	-379.33813	-650.20117	802.45017	-313.92515	-492.48855	822.18389	-456.74910	-433.77920	834.49702	-522.57675	-417.06870	808.47095	-499.08118	-621.25225	898.22727	-880.24257	-703.36716	789.88299	-880.72167	-640.57511	812.46847	-935.89541	-485.84401	832.44257	-800.70969	-440.90753	845.84657	-741.91549	-428.58728	821.47985	-763.49909	-683.49463	609.82967	-519.85031	-697.65040	601.71375	-716.65148	-676.76576	616.23117	-529.44099	-683.04531	619.13788	-706.11187	
2	0.01000000	-249.22825	589.14234	-348.51037	-192.17156	458.81980	-336.30347	-290.27771	104.18803	-328.01418	-346.12603	73.06298	-393.20643	-156.82951	45.25475	-289.95792	-115.97288	72.36199	-338.73065	-280.46080	583.89234	-930.90484	-203.37600	407.59209	-930.05079	-302.53269	112.84377	-930.30576	-356.08814	74.25678	-865.48482	-166.37491	38.06931	-977.07841	-121.50756	71.06255	-923.30350	-206.09247	344.61702	-339.50524	-260.31343	463.00250	-305.54012	-274.69095	351.87430	-295.61573	-276.96319	421.62217	-976.36945	-291.51102	303.77646	-963.31741	-530.92736	650.12710	-384.82831	-422.50045	660.76512	-361.67803	-400.00367	595.62762	-348.19250	-527.49200	541.18554	-397.24906	-410.97247	544.43513	-372.20649	-550.93226	675.61490	-851.02003	-422.52936	672.28583	-890.76219	-568.53768	570.29954	-874.75740	-436.66636	567.67678	-919.99668	-631.65172	723.04571	-491.22402	-819.36349	702.79531	-572.70023	-644.45382	706.54033	-758.42972	-822.59961	704.20430	-662.52603	-739.98431	1196.25575	-635.43097	-660.46336	1161.89472	-464.40989	-680.04346	1171.28781	-807.68799	-595.03176	1116.00168	-610.18867	-593.46259	1114.79829	-658.93731	-616.89976	907.15563	-383.15653	-684.93871	765.55628	-379.06583	-641.83906	803.57052	-313.46347	-484.65743	824.51561	-456.66034	-426.25777	836.94041	-522.29357	-409.16643	811.38761	-498.85611	-615.35943	899.36638	-880.85229	-695.41852	788.94378	-880.55998	-633.16672	813.49097	-936.57258	-478.58034	834.66533	-801.37554	-433.71471	848.25398	-742.37719	-421.28771	824.09097	-764.09158	-684.42401	609.99411	-519.66377	-698.39351	601.78910	-716.47442	-677.56492	616.34502	-529.12663	-683.93315	619.11732	-705.88390	
3	0.02000000	-250.17046	589.17883	-348.69859	-192.92143	458.99084	-336.50584	-290.24434	104.30535	-327.85617	-346.19460	73.03354	-393.24535	-156.85939	45.31128	-290.09359	-116.03880	72.58108	-338.75832	-281.43096	583.90460	-930.42854	-204.09791	407.76401	-929.76856	-302.66480	112.87291	-930.22543	-356.16318	74.21813	-865.47762	-166.46027	38.17119	-977.02795	-121.60537	71.37553	-923.39366	-206.72389	344.76690	-339.59872	-261.07009	463.07097	-305.75014	-275.27222	351.73991	-295.79468	-277.69641	421.69615	-976.02444	-291.99665	303.81544	-963.03505	-531.81580	650.10632	-384.55343	-423.21396	660.80384	-361.40101	-400.79978	595.56999	-348.23764	-528.41552	541.29353	-397.14138	-411.84831	544.39144	-372.37826	-551.88270	675.70430	-850.95542	-423.43541	672.29185	-890.54365	-569.45396	570.35035	-874.57405	-437.52941	567.73732	-919.60755	-632.03460	723.03513	-491.09342	-819.88976	703.30215	-572.76816	-644.73428	706.50916	-757.99492	-823.00335	704.70452	-662.30863	-736.27636	1196.38017	-635.80089	-657.07133	1161.91549	-464.97801	-676.56126	1171.22200	-807.76043	-591.88321	1115.28960	-610.53967	-590.28411	1113.98633	-659.15854	-610.28205	908.53859	-383.11967	-675.89504	765.47525	-378.97532	-633.11945	804.66450	-313.04039	-476.40572	826.86624	-456.59336	-418.12660	839.63137	-522.26027	-400.73919	814.28568	-498.83664	-608.99356	900.47750	-881.42475	-687.40077	788.75525	-880.99494	-625.36755	814.38307	-937.15079	-470.90506	836.83093	-802.01937	-426.12630	850.62978	-742.98934	-413.42672	826.62788	-764.72066	-685.19706	610.13128	-519.42094	-699.02261	601.91576	-716.24134	-678.33515	616.54269	-528.97862	-684.47477	619.30796	-705.54129	
4	0.03000000	-251.11825	589.22530	-348.95465	-193.73333	459.14285	-336.70191	-290.14308	104.52866	-327.54885	-346.27363	73.00396	-393.23743	-156.91223	45.37276	-290.14504	-116.11363	72.83599	-338.76355	-282.33552	583.95587	-930.09436	-204.77153	407.95505	-929.55836	-302.80151	112.90157	-930.15852	-356.23668	74.17820	-865.48378	-166.51077	38.27312	-976.97315	-121.73033	71.64973	-923.49652	-207.40357	344.82936	-339.59355	-261.79808	463.09540	-306.10476	-276.06184	351.73428	-295.96494	-278.33219	421.82796	-975.80478	-292.46811	303.88814	-962.83766	-532.64362	650.18605	-383.98603	-424.15760	660.66187	-361.31494	-401.67917	595.63444	-348.13779	-529.29980	541.31478	-397.22880	-412.74494	544.36637	-372.47625	-552.85176	675.75487	-850.87500	-424.40408	672.23234	-890.28305	-570.40257	570.42170	-874.42845	-438.40410	567.72719	-919.30569	-632.20771	722.92222	-491.00108	-820.41903	703.87335	-572.65915	-644.86024	706.39805	-757.38863	-823.33424	705.28995	-662.07610	-732.14412	1196.45755	-636.23592	-653.25338	1162.02384	-465.63261	-672.59263	1171.09603	-807.98299	-588.36921	1114.38087	-610.87535	-586.70820	1113.02666	-659.45183	-603.11325	909.98714	-383.20329	-666.28459	765.45829	-378.96898	-623.87069	805.83917	-312.66390	-467.64679	829.23396	-456.56649	-409.42040	842.42155	-522.47956	-391.76625	817.19775	-498.89549	-602.08302	901.57360	-881.87088	-678.81858	788.99184	-881.98534	-616.97375	815.20021	-937.60533	-462.73310	838.89128	-802.56222	-417.95056	852.99864	-743.65181	-404.94812	829.09653	-765.33045	-685.94763	610.21812	-519.10266	-699.65534	602.00723	-715.93153	-679.14988	616.73440	-528.88371	-684.89565	619.52632	-705.11951	
